<svg id="Calque_1" data-name="Calque 1" xmlns="http://www.w3.org/2000/svg" xmlns:xlink="http://www.w3.org/1999/xlink" viewBox="0 0 358.67 165.58"><defs><style>.cls-1,.cls-3,.cls-5{fill:#009640;}.cls-1{clip-rule:evenodd;}.cls-2{fill:#1d1d1b;}.cls-4{fill:none;stroke:#1d1d1b;stroke-miterlimit:10;stroke-width:7.41px;}.cls-5{fill-rule:evenodd;}.cls-6{clip-path:url(#clip-path);}.cls-7{clip-path:url(#clip-path-2);}</style><clipPath id="clip-path" transform="translate(-126.6 -193.63)"><path id="SVGID" class="cls-1" d="M391.23,212.5l8.21,14.23a9.52,9.52,0,0,1-1.52,11.46l-.08.08,0,0a9.48,9.48,0,0,1-13.16,0l0,0-.06-.06A9.51,9.51,0,0,1,383,226.73Z"/></clipPath><clipPath id="clip-path-2" transform="translate(-126.6 -193.63)"><path id="SVGID-2" data-name="SVGID" class="cls-1" d="M391.23,219l5.11,8.86a5.91,5.91,0,0,1-.95,7.13l-.05,0v0a5.92,5.92,0,0,1-8.2,0l0,0,0,0a5.93,5.93,0,0,1-1-7.14Z"/></clipPath></defs><path class="cls-2" d="M156.37,251.9q3.42,3.12,3.42,9.79v27.14h-6.94l-.44-3.38a23.54,23.54,0,0,1-14.15,4.45,13.71,13.71,0,0,1-6-1.29,9.76,9.76,0,0,1-4.14-3.65,10,10,0,0,1-1.47-5.38,10.71,10.71,0,0,1,3.47-8.15,21.17,21.17,0,0,1,9.26-4.76A56.74,56.74,0,0,1,152.14,265v-2c0-2.67-.53-4.62-1.6-5.83s-2.88-1.83-5.43-1.83q-6.5,0-13.52,4.63l-3.38-5.34a31.1,31.1,0,0,1,17.88-5.87Q152.95,248.79,156.37,251.9Zm-20.2,30.35a6.33,6.33,0,0,0,4.14,1.15,22.27,22.27,0,0,0,11.83-3.56v-9.25a37,37,0,0,0-12.55,2.4c-3.2,1.37-4.8,3.29-4.8,5.78A4.28,4.28,0,0,0,136.17,282.25Z" transform="translate(-126.6 -193.63)"/><path class="cls-2" d="M193.6,249c.83.12,1.72.3,2.67.53l-1.42,7.92a16.81,16.81,0,0,0-5.52-1.07,11.23,11.23,0,0,0-5.25,1.25,13.08,13.08,0,0,0-4.63,4.71v26.52H171.8V249.77l7.65-.8v5.6a15.28,15.28,0,0,1,5.17-4.31,13.69,13.69,0,0,1,6.22-1.47A19.38,19.38,0,0,1,193.6,249Z" transform="translate(-126.6 -193.63)"/><path class="cls-2" d="M207.21,287.18A16.5,16.5,0,0,1,201,279.8a26,26,0,0,1-2.05-10.55q0-7.11,2.67-11.7a16,16,0,0,1,7.21-6.67,24.42,24.42,0,0,1,10.32-2.09,18.83,18.83,0,0,1,10.41,2.71,16.58,16.58,0,0,1,6.23,7.34,25.81,25.81,0,0,1,2,10.5q0,7.21-2.67,11.79a16,16,0,0,1-7.2,6.68,24.48,24.48,0,0,1-10.32,2.09A18.76,18.76,0,0,1,207.21,287.18Zm22.6-17.93q0-6.48-2.8-10.36T218.6,255q-6.22,0-8.94,3.78T207,269.25c0,4.4,1,7.89,2.85,10.5s4.74,3.92,8.54,3.92Q229.82,283.67,229.81,269.25Z" transform="translate(-126.6 -193.63)"/><path class="cls-2" d="M300.73,251.64q3,2.85,3,9.25v27.94H296.1V264a16.69,16.69,0,0,0-.62-5.12,4.71,4.71,0,0,0-2-2.63,7.32,7.32,0,0,0-3.74-.8,21.24,21.24,0,0,0-5.42.76,27.63,27.63,0,0,0-5.34,2q.18,1.78.18,2.67v27.94h-7.66V264a17.55,17.55,0,0,0-.58-5.12,4.47,4.47,0,0,0-1.91-2.63,7.3,7.3,0,0,0-3.73-.8,19.94,19.94,0,0,0-5.25.76,33.05,33.05,0,0,0-5.25,1.91v30.7h-7.66v-39l7.66-.89v3.74a26.81,26.81,0,0,1,13.34-3.92q6.58,0,9.26,4.36a34,34,0,0,1,7.25-3.11,27,27,0,0,1,8-1.25A11.34,11.34,0,0,1,300.73,251.64Z" transform="translate(-126.6 -193.63)"/><path class="cls-2" d="M342,251.9q3.42,3.12,3.42,9.79v27.14h-6.94l-.44-3.38a23.52,23.52,0,0,1-14.15,4.45,13.74,13.74,0,0,1-6.05-1.29,9.76,9.76,0,0,1-4.14-3.65,10,10,0,0,1-1.46-5.38,10.68,10.68,0,0,1,3.47-8.15,21.08,21.08,0,0,1,9.25-4.76A56.82,56.82,0,0,1,337.74,265v-2c0-2.67-.53-4.62-1.6-5.83s-2.88-1.83-5.43-1.83q-6.49,0-13.52,4.63l-3.38-5.34a31.1,31.1,0,0,1,17.88-5.87Q338.54,248.79,342,251.9Zm-20.2,30.35a6.33,6.33,0,0,0,4.14,1.15,22.27,22.27,0,0,0,11.83-3.56v-9.25A36.91,36.91,0,0,0,325.2,273c-3.21,1.37-4.81,3.29-4.81,5.78A4.28,4.28,0,0,0,321.77,282.25Z" transform="translate(-126.6 -193.63)"/><path class="cls-3" d="M387.4,285V253.26a3.83,3.83,0,0,1,3.38-3.8h0a3.83,3.83,0,0,1,4.27,3.8V285a3.82,3.82,0,0,1-3.82,3.83h0A3.82,3.82,0,0,1,387.4,285Z" transform="translate(-126.6 -193.63)"/><path class="cls-3" d="M441.32,261.16v27.67h-7.65V264a15.61,15.61,0,0,0-.67-5.12,4.62,4.62,0,0,0-2.23-2.63,9.32,9.32,0,0,0-4.22-.8,23.81,23.81,0,0,0-5.7.76,31.35,31.35,0,0,0-5.69,2v30.61h-7.65v-39l7.65-.89v3.74a30.75,30.75,0,0,1,14.24-3.92Q441.31,248.79,441.32,261.16Z" transform="translate(-126.6 -193.63)"/><path class="cls-3" d="M485.09,270.68H458q.09,6.68,3.24,9.7a11.33,11.33,0,0,0,8.15,3,19.1,19.1,0,0,0,6.18-.89,32.18,32.18,0,0,0,5.83-2.76l2.93,5.43A27.69,27.69,0,0,1,469,289.9q-8.55,0-13.66-4.76t-5.11-15.08a26,26,0,0,1,2.13-10.68,17.32,17.32,0,0,1,16.73-10.59,17.51,17.51,0,0,1,8.81,2.09,13.72,13.72,0,0,1,5.51,5.74,18,18,0,0,1,1.87,8.36Zm-23.26-13.17a14.06,14.06,0,0,0-3.43,7.56h19.4v-.35c0-3.32-.76-5.82-2.27-7.48a8.28,8.28,0,0,0-6.45-2.49A9.52,9.52,0,0,0,461.83,257.51Z" transform="translate(-126.6 -193.63)"/><path class="cls-4" d="M115,320.2" transform="translate(-126.6 -193.63)"/><path id="SVGID-3" data-name="SVGID" class="cls-5" d="M391.23,212.5l8.21,14.23a9.52,9.52,0,0,1-1.52,11.46l-.08.08,0,0a9.48,9.48,0,0,1-13.16,0l0,0-.06-.06A9.51,9.51,0,0,1,383,226.73Z" transform="translate(-126.6 -193.63)"/><g class="cls-6"><rect class="cls-3" x="254.22" y="18.87" width="20.8" height="28.45"/></g><path id="SVGID-4" data-name="SVGID" class="cls-5" d="M391.23,219l5.11,8.86a5.91,5.91,0,0,1-.95,7.13l-.05,0v0a5.92,5.92,0,0,1-8.2,0l0,0,0,0a5.93,5.93,0,0,1-1-7.14Z" transform="translate(-126.6 -193.63)"/><g class="cls-7"><rect class="cls-3" x="258.14" y="25.4" width="12.95" height="17.71"/></g><path class="cls-3" d="M376.62,263.57v5.89q-9.44,22.07-15.36,22.07-3.19,0-5-6.18t-1.83-16.21a103.33,103.33,0,0,1,2.17-19.31,204.72,204.72,0,0,1,5.8-22.71,178.09,178.09,0,0,1,7.54-20.07q3.91-8.56,7.25-12c.91-.95,1.61-1.43,2.13-1.43s1,.49,1.26,1.47a27.54,27.54,0,0,1,.32,5.06q0,11.07-5.11,27.2a187.27,187.27,0,0,1-14.23,32.94,63.55,63.55,0,0,0-.45,6.37,23.36,23.36,0,0,0,1.24,8.29c.83,2.12,2,3.19,3.46,3.19a3.5,3.5,0,0,0,2.44-1.56,33.49,33.49,0,0,0,2.75-3.86Q372.42,270.42,376.62,263.57Zm-13.5-14.34a84.85,84.85,0,0,0,4.53-9.24q2.19-5.18,4.14-11.07t3-10.6a34.43,34.43,0,0,0,1.1-7.09q0-1.83-.72-1.83c-.18,0-.53.29-1,.88q-2.76,4-6.19,15.57A143.34,143.34,0,0,0,363.12,249.23Z" transform="translate(-126.6 -193.63)"/><path class="cls-2" d="M291.77,332.14q3.28,0,3.28,4,0,5.33-4.92,13.49-5.37,8.85-10.37,8.85a3.58,3.58,0,0,1-3.41-2.16,5.64,5.64,0,0,1-.56-2.6q0-5.13,3.53-11.13a26.82,26.82,0,0,1,7.72-8.65A8.57,8.57,0,0,1,291.77,332.14Zm-4.17,15.13c-.66-.53-1-.95-1-1.24s.43-.8,1.28-1.76c2.41-2.7,3.61-4.87,3.61-6.53a1.23,1.23,0,0,0-.2-.64,1.07,1.07,0,0,0-1-.6c-.86,0-2.11.83-3.77,2.48a25.41,25.41,0,0,0-4.88,6.61,15.1,15.1,0,0,0-2,6.45,2.07,2.07,0,0,0,.36,1.2,1.55,1.55,0,0,0,1.32.72q1.92,0,4.12-2.89a12.21,12.21,0,0,0,1.56-2.48A7,7,0,0,0,287.6,347.27Z" transform="translate(-126.6 -193.63)"/><path class="cls-2" d="M305.82,334a1.38,1.38,0,0,1,1.12.52,1.45,1.45,0,0,1,.32.88,5.31,5.31,0,0,1-1.16,2.4,74.34,74.34,0,0,0-5.92,10.61,87.75,87.75,0,0,0-3.33,8.81c-.42,1.34-1.09,2-2,2a1.52,1.52,0,0,1-1.28-.64,1.73,1.73,0,0,1-.44-1.12q0-1.2,2.56-8a56.07,56.07,0,0,1,6.49-11.85,22.39,22.39,0,0,1,2.16-2.84A2.06,2.06,0,0,1,305.82,334Zm7.61-14.86a1.61,1.61,0,0,1,1.8,1.84,6,6,0,0,1-1.76,3.73c-1.12,1.31-2.2,2-3.24,2a1.56,1.56,0,0,1-1.24-.56,1.82,1.82,0,0,1-.49-1.28,6.13,6.13,0,0,1,2.13-4.09A4.29,4.29,0,0,1,313.43,319.12Z" transform="translate(-126.6 -193.63)"/><path class="cls-2" d="M312.71,344.67q-1.2,3.12-1.8,5a10.82,10.82,0,0,0-.6,2.69c0,.66.32,1,1,1q1.44,0,3.72-2.73a47.89,47.89,0,0,0,3.2-4.76c.56-.91,1.15-1.36,1.77-1.36s1,.33,1,1q0,1.72-4,7Q312.9,358,309.39,358a3,3,0,0,1-2.49-1.28,3.68,3.68,0,0,1-.68-2.24,20.83,20.83,0,0,1,1.36-6.21,98.71,98.71,0,0,1,4.05-9.65,134.74,134.74,0,0,1,14.05-23.82q5.73-7.53,9.49-7.53a2.43,2.43,0,0,1,2,.92,3.12,3.12,0,0,1,.8,2.12q0,5.61-10,18.66a96.16,96.16,0,0,1-10.73,11.61C316.1,341.6,314.6,343,312.71,344.67Zm2.84-6.37a73.23,73.23,0,0,0,14.9-18c2.26-3.76,3.4-6.25,3.4-7.48,0-.59-.25-.88-.76-.88q-2.2,0-8,8.76A126.11,126.11,0,0,0,315.55,338.3Z" transform="translate(-126.6 -193.63)"/></svg>