<svg id="Calque_1" data-name="Calque 1" xmlns="http://www.w3.org/2000/svg" viewBox="0 0 342.11 317.91"><defs><style>.cls-1{fill:#063;}.cls-2,.cls-3{fill:#fff;}.cls-2{stroke:#063;stroke-miterlimit:10;stroke-width:3px;}</style></defs><circle class="cls-1" cx="183.15" cy="158.96" r="158.96"/><path class="cls-2" d="M131.45,438.15a2.12,2.12,0,0,1,1.79.88,6.23,6.23,0,0,1,1,2.15,14.23,14.23,0,0,1,.45,2.75c.08,1,.11,1.9.11,2.74v2.68a46.59,46.59,0,0,0,3.77,5,37.83,37.83,0,0,0,5.25,5.08,31.25,31.25,0,0,0,6.45,3.95,17.9,17.9,0,0,0,7.44,1.58,16.67,16.67,0,0,0,7.93-2,27.79,27.79,0,0,0,6.87-5.25,46.19,46.19,0,0,0,5.85-7.51,80.42,80.42,0,0,0,4.83-8.78c1.44-3,2.7-6.05,3.81-9.05s2.05-5.78,2.85-8.32,1.44-4.74,1.91-6.59.8-3.14,1-3.84q1.84-7.49,3.14-14.31a71.75,71.75,0,0,0,1.3-13.47c0-1.08-.32-1.69-1-1.83L178.75,389a9,9,0,0,1-2.4.43,6,6,0,0,1-6.27-6.56,18.18,18.18,0,0,1,.59-5.11,5.65,5.65,0,0,1,1.91-2.93,7.47,7.47,0,0,1,3.42-1.3,35.5,35.5,0,0,1,5.14-.32h1c1.13-.23,2.57-.56,4.33-1l5.89-1.45c2.16-.54,4.47-1.13,6.91-1.76l7.4-1.9q3.74-1,7.44-1.87c2.46-.61,4.78-1.18,6.94-1.69q.21-.07,1.41-.36l2.68-.6L228,362a11.18,11.18,0,0,1,1.76-.29,2.65,2.65,0,0,1,1.55.5,4.13,4.13,0,0,1,1.16,1.23,6.5,6.5,0,0,1,.74,1.69,6.36,6.36,0,0,1,.29,1.8,4.93,4.93,0,0,1-1.62,3.67,15.72,15.72,0,0,1-4.09,2.71,39.17,39.17,0,0,1-5.4,2L216.88,377c-1.69.52-3.14,1-4.33,1.52s-1.87,1-2,1.65c-.24,2.07-.47,4.37-.71,6.91s-.49,5-.77,7.26c-.1.56-.3,1.93-.6,4.09s-.73,4.79-1.27,7.89-1.2,6.5-2,10.19-1.66,7.32-2.65,10.89a121.78,121.78,0,0,1-4.26,12.48,99.65,99.65,0,0,1-6.28,12.9,82.09,82.09,0,0,1-8.21,11.73,45.82,45.82,0,0,1-9.94,9,27.6,27.6,0,0,1-3,1.55,25.43,25.43,0,0,1-3.7,1.34,37.52,37.52,0,0,1-4.23.92,28.66,28.66,0,0,1-4.4.35,35.14,35.14,0,0,1-7.93-1,50.78,50.78,0,0,1-8.57-2.82,54.78,54.78,0,0,1-8.28-4.4,42.08,42.08,0,0,1-7.09-5.71,27.28,27.28,0,0,1-4.93-6.73,16.43,16.43,0,0,1-1.83-7.55,19.8,19.8,0,0,1,.6-5.21,7.74,7.74,0,0,1,1.93-3.53,8.08,8.08,0,0,1,3.56-2A20,20,0,0,1,131.45,438.15Z" transform="translate(-118.46 -261.99)"/><path class="cls-3" d="M340,450.85c0,1.09-.47,1.7-1.4,1.82s-3.23.19-6.89.19a52,52,0,0,1-7.08-.28c-.93-.19-1.4-.95-1.4-2.29s.05-3.56.14-6.4.14-5,.14-6.4c0-5.44-.06-9.3-.19-11.6-.18-3.69-1.94-5.54-5.26-5.54a6.7,6.7,0,0,0-4.35,1.84,6.13,6.13,0,0,0-2.4,4.07q-.19,2-.19,11.46,0,2.19.14,6.64t.14,6.68c0,1-.45,1.54-1.35,1.54H295.9c-.87,0-1.31-.64-1.31-1.91q0-2.19.14-6.57c.1-2.92.14-5.12.14-6.61q0-1.73-.09-5.22c-.06-2.33-.09-4.08-.09-5.26,0-4.44-1.7-6.66-5.08-6.66a8.11,8.11,0,0,0-4.42,1.58q-2.61,1.72-2.61,3.63,0,4.24.05,12.67t0,12.62a2.32,2.32,0,0,1-.28,1.45,2.65,2.65,0,0,1-1.44.37c-1.4.12-3.6.19-6.61.19-2,0-4.18-.1-6.66-.28-.75-.07-1.19-.17-1.33-.33a2.67,2.67,0,0,1-.21-1.4c0-2.48,0-6.2.05-11.15s0-8.67,0-11.16a148,148,0,0,0-1.12-17.18,5.73,5.73,0,0,1-.09-.84,1.06,1.06,0,0,1,.65-1.07,16.17,16.17,0,0,1,3.87-.7c2.33-.22,3.71-.35,4.14-.42s1.54-.39,3.68-1a14.32,14.32,0,0,1,3.68-.65q.88,0,.93,3.24c0,2.16.16,3.24.38,3.24a5.19,5.19,0,0,0,1.07-.66,44.46,44.46,0,0,1,6.61-4.47,17.69,17.69,0,0,1,7.78-1.72,15.23,15.23,0,0,1,7.64,1.91,10,10,0,0,1,4.89,6,19.46,19.46,0,0,1,6.8-5.64,18,18,0,0,1,8.42-2.28,16.54,16.54,0,0,1,10,2.84,10.7,10.7,0,0,1,4.38,9.18c0,1.64,0,4.12-.14,7.42s-.14,5.79-.14,7.43c0,2,0,4.9.14,8.83S340,448.9,340,450.85Z" transform="translate(-118.46 -261.99)"/><path class="cls-3" d="M395.61,429.29c0,2.39.14,5.95.42,10.66s.42,8.26.42,10.62c0,1.25-.55,1.91-1.63,2q-5.77.42-13.23.42c-.59,0-1-.9-1.19-2.68s-.44-2.7-.72-2.73a4.68,4.68,0,0,0-1,.79q-5.2,5.26-11.17,5.27a18.74,18.74,0,0,1-15-7.18,24.12,24.12,0,0,1-5.63-16q0-10.76,5.82-17.32,6.06-6.79,16.58-6.8a14.22,14.22,0,0,1,11.55,5.12q.18.24.33.24c.28,0,.59-.76.95-2.26s.78-2.26,1.28-2.26a40.08,40.08,0,0,1,6.57,1,64.69,64.69,0,0,1,6.61,1.58c.47.19.7.43.7.74a9.09,9.09,0,0,1-.14,1A102.79,102.79,0,0,0,395.61,429.29Zm-15,.28a9,9,0,0,0-2.49-6.54,9.45,9.45,0,0,0-13,0,9.11,9.11,0,0,0-2.47,6.57,9,9,0,0,0,2.61,6.47,8.48,8.48,0,0,0,6.33,2.7,8.66,8.66,0,0,0,6.48-2.58A9,9,0,0,0,380.61,429.57Z" transform="translate(-118.46 -261.99)"/><path class="cls-3" d="M451.17,451.23a1.33,1.33,0,0,1-1.3,1.44c-.87.12-3.14.19-6.8.19a54.24,54.24,0,0,1-7.27-.28,1.7,1.7,0,0,1-1.4-1.91q0-2.19.14-6.62c.1-2.95.14-5.17.14-6.66,0-1.14,0-2.86-.09-5.14s-.09-4-.09-5.15q0-6.37-5.54-6.38a8.1,8.1,0,0,0-4.24,1.58q-2.61,1.77-2.61,3.5V451a1.52,1.52,0,0,1-1.44,1.72c-1.09.12-3.31.19-6.66.19a55.27,55.27,0,0,1-7.08-.28c-1-.16-1.45-.67-1.45-1.54q0-3.63,0-11t.05-11q0-11.6-1.82-18.21a3.43,3.43,0,0,1-.09-.69,1,1,0,0,1,.7-1q2.92-.33,7.82-1c4.94-1,7.71-1.45,8.34-1.45.34,0,.6,1.05.79,3.15s.45,3.14.79,3.14q-.51,0,5-3.24c3.67-2.16,6.9-3.23,9.66-3.23a16.72,16.72,0,0,1,9.87,2.79,10.42,10.42,0,0,1,4.43,8.94v14.86q0,3,0,9.06T451.17,451.23Z" transform="translate(-118.46 -261.99)"/><path class="cls-3" d="M258.11,410c0,2.34-.11,5.86-.32,10.54s-.33,8.2-.33,10.55.08,5.7.23,10.26.23,8,.23,10.21a1.5,1.5,0,0,1-1.15,1.61,35.08,35.08,0,0,1-7.4.48,56.92,56.92,0,0,1-7-.29,1.31,1.31,0,0,1-1.1-1.14l-.28-2.85c-.15-1.45-.37-2.18-.64-2.18.43,0-1.12,1.07-4.65,3.23s-6.72,3.23-9.61,3.23q-12.18,0-14.44-11.35a87.5,87.5,0,0,1-1-15.3q0-10.83,1.7-17.1c.34-1.29,1-1.94,1.89-1.94q2.12,0,6.44,0c2.88,0,5,.05,6.44.05.95,0,1.42.41,1.42,1.24a8,8,0,0,1-.09,1,87.79,87.79,0,0,0-1,13.11A81.65,81.65,0,0,0,228,434.7q.82,5.22,6,5.22a7.34,7.34,0,0,0,4.39-1.85q2.37-1.86,2.46-3.85.1-1.75.1-23.84a3.94,3.94,0,0,1,.23-1.85q.27-.48,1.65-.48,2.25,0,6.78.05t6.79,0c.92,0,1.45.23,1.61.71A5.29,5.29,0,0,1,258.11,410Z" transform="translate(-118.46 -261.99)"/><path class="cls-3" d="M229.85,524.61a.17.17,0,0,1-.12.18l-.29-.09-.33.25-.38-.05a.9.9,0,0,1-.5.16q-.21,0-.27.09a1.13,1.13,0,0,0-.41-.09c-.13,0-.21,0-.24.13a.38.38,0,0,0,.13.16l-.05.18.05.61.23.34,0,.33.4.58-.06.26.27.25.41.71a2.26,2.26,0,0,1,.38.53l.33.17.12.28.13.1-.24.17-.29-.22H229l-.24-.19h-.18l-.16-.31-.18-.08a2.24,2.24,0,0,0-.46-.67v-.18l-.17-.15,0-.28-.27-.29-.38-.9-.12-.16-.06-.45a2.17,2.17,0,0,0-.23-.41v-.38h-.21l-.24.16-.36-.07-.25.15-.09-.08-.2.12,0-.12a.48.48,0,0,0-.18,0,.93.93,0,0,1-.29.05l-.23,0h-.31l-.31.21-.32-.07-.45,0v.09l-.16-.09-.22.12-.16-.12h-.29l-.29.12-.24-.25-.12.1-.25-.1a2.64,2.64,0,0,0-.83.92l-.29.07a11.2,11.2,0,0,1-.77,1.12l-.16.09-.5.65h-.1l-.43.7-.47.29-.36-.1.07-.15v-.26l.14-.16-.07-.12.33,0,.22-.13a.6.6,0,0,0,.36-.45.51.51,0,0,0,.43-.41,1.22,1.22,0,0,0,.58-.81l.25-.09.58-.9v-.26a.57.57,0,0,1-.19-.26l.35-.31v-.13l.41,0,.24-.14,0,.07.24-.32c-.06,0-.08,0-.08-.08s.08-.1.25-.21l.07.1a1.35,1.35,0,0,1,.19-.51l-.06,0,.21,0,.07-.23c.15,0,.22-.08.22-.19V523c.29-.25.44-.47.44-.68v0l.23,0L223,522l.12,0,.18-.37.13.08-.09-.19c.17,0,.27-.13.29-.34l.12.07v-.36h.12v-.26l.21-.18a.62.62,0,0,0,.21-.39l.2-.2-.12-.28c.16-.22.32-.33.46-.33h0l.1-.16.13.18a.7.7,0,0,0,.15.12l.3.15,0,.45a1,1,0,0,1,.23.36l.15.06,0,.39.14.54.24.41.16.58,0,.38.26.34-.07.14.19.22v.27l0,.25a.32.32,0,0,1-.07.18c.18.43.39.65.63.65l.34-.07h.41a1.56,1.56,0,0,0,.33,0,.57.57,0,0,0,.36-.11c.08-.07.13-.1.16-.1a1.17,1.17,0,0,1,.32.16Zm-3.42-.45a.76.76,0,0,0-.29-.4l.1-.25-.24-.12-.07-.69-.22-.34,0-.29-.12-.25v-.09h-.05l0-.39a.39.39,0,0,0-.09-.19l-.13-.2a.61.61,0,0,0-.14-.13l-.34-.18-.2.1-.13.21-.43.62-.1.2a3.32,3.32,0,0,1-.42.46l-.07.29-.38.2c-.09.46-.27.72-.54.79l-.17.54-.36.14v.19l-.05.23a1.71,1.71,0,0,1,.45.18l.22,0,.36.09a.41.41,0,0,0,.16,0,1,1,0,0,0,.25,0h.07l.14,0a.78.78,0,0,0,.21,0l.23-.06.71-.05.57-.08c.37,0,.6.08.7.08.28,0,.41-.06.41-.18a.57.57,0,0,0-.15-.31Z" transform="translate(-118.46 -261.99)"/><path class="cls-3" d="M239.29,526.81l-.15.68,0,.16-.07.09a.79.79,0,0,1,.11.38l0,.18,0,.36a6.24,6.24,0,0,1-.08.85c-.05.35-.08.58-.09.7l0,.26a2.07,2.07,0,0,1-.19.49h.09l0,.27-.11.14a1.24,1.24,0,0,0-.12.3,1.59,1.59,0,0,1-.15.39c-.06.11-.13.23-.22.37a1.58,1.58,0,0,1-.31.36l-.47.4-.27.13a.6.6,0,0,1-.33.18l-.09.11-.65.12h0l0,.06a1.46,1.46,0,0,1-.58.11h-.64l-.47-.11-.29.06-.13-.12-.52-.07-.21-.19a2.31,2.31,0,0,0-.45-.29.86.86,0,0,1-.57-.58l.07-.09-.07-.33a.19.19,0,0,1,.15-.08c0-.05.07-.07.11-.07l.21,0,.42.05,0,.19a.5.5,0,0,1,.26.1.28.28,0,0,1,0,.15l0,.09c0,.14.05.21.16.23s0,.12,0,.12l.12,0,.76.24.2,0,0,.07H235a.89.89,0,0,1,.31.06,2.17,2.17,0,0,1,.95-.2.65.65,0,0,0,.29-.14c.22,0,.35-.08.4-.15H237a.35.35,0,0,0,.17,0,.49.49,0,0,0,.15-.1l.6-.64.34-.51,0-.24.2-.29,0-.27.1-.22.1-.53.14-.53V529a1.39,1.39,0,0,1,.13-.65l-.12-.39V527l-.12-.34v-.54l-.16-.38,0-.61-.22-.67a.21.21,0,0,0-.13-.05c-.07,0-.15.06-.23.18l0,.18-.24.11-.14.34-.22.23-.33.53-.43.3-.51.58q-.22.21-.42.36c-.12.11-.25.21-.38.31a1.23,1.23,0,0,0-.24.2l-.08.13a1,1,0,0,1-.24.18l-.29.13-.16.17a1.86,1.86,0,0,1-.39.25.24.24,0,0,1-.23.12h-.05a1.16,1.16,0,0,1-.79.31l-.25,0-.15.09a1,1,0,0,0-.38-.09,2.43,2.43,0,0,1-.74-1.08l-.11-.7,0-.45.2-.69,0-.21.07-.3a1.94,1.94,0,0,1,.17-.45,1,1,0,0,0,.11-.44v-.29l.37-.7.1-.13a2.78,2.78,0,0,0,.31-.47l.19-.21a.87.87,0,0,1,.3-.42.63.63,0,0,0,.23-.41.61.61,0,0,1,.37-.16.49.49,0,0,0,.38-.34l.13,0,.32-.23a.46.46,0,0,1,.33-.2.43.43,0,0,1,.14,0l.53-.2.33.07h.24l.18.13h.11a2,2,0,0,0,.34.37,2.49,2.49,0,0,1,.34.36.77.77,0,0,1-.11.42h-.28l-.24-.38c-.22-.09-.34-.16-.38-.23l-.09,0a1,1,0,0,0-.37-.12,1,1,0,0,0-.62.24l-.12,0,0,.13h-.16l-.23.05c-.07.17-.17.25-.31.25a1.44,1.44,0,0,1-.34.29l-.11.23-.17,0V523h-.16l-.29.5-.24.17-.1.32-.25.38a1.13,1.13,0,0,0-.06.41l-.19.21-.21.81-.17.2v.33l-.22.74.08.24,0,.35a.55.55,0,0,1,.14.27.34.34,0,0,0,.19.25l.05.18a.54.54,0,0,1,.24.11.57.57,0,0,1,.25-.06l.18,0,.22,0c.08-.1.36-.17.86-.23.06-.06.13-.15.21-.25a.85.85,0,0,1,.24-.23l.3-.2a1.68,1.68,0,0,1,.26-.15c.21-.05.31-.17.31-.34.3-.11.46-.24.5-.37l.14,0a.83.83,0,0,0,.19-.14,3.05,3.05,0,0,0,.4-.52l.11.07.07-.16.2-.07a.22.22,0,0,1,0-.09.3.3,0,0,1,.1-.22l.13,0a.16.16,0,0,0,.08-.1l.06-.13.35-.45h.07l0-.36a4.28,4.28,0,0,0,.48-1.15l.13,0-.09-.28-.06-.29a.85.85,0,0,0-.12-.27l-.18-.31.11-.28-.08-.33c.06-.12.13-.18.2-.18l.1,0a1.38,1.38,0,0,1,.19.3l.18.09,0,.33.08.23a.77.77,0,0,1,0,.19.73.73,0,0,0,.07.25.86.86,0,0,1,.06.25s0,.07-.06.07a1.8,1.8,0,0,0,.23.46l-.05.36a.92.92,0,0,1,.2.33.35.35,0,0,1-.11.22l0,.23.13,0-.06.24.07.46a1,1,0,0,1,.09.4l0,0a1.22,1.22,0,0,0,0,.42l.12.09Z" transform="translate(-118.46 -261.99)"/><path class="cls-3" d="M247.91,522l0,.21-.53.08-.34.25-.23,0-.29.17-.29.13a1.11,1.11,0,0,1-.34.23v.09l-.27.13-.18.29h-.2l-.09.28-.2.13a.55.55,0,0,0-.2.2l-.17.32c-.14.07-.22.23-.24.49l-.09,0,0,.12-.14.08-.12.31a.82.82,0,0,0-.19.41l-.17.07v.38a.77.77,0,0,0-.09.2l0,.06-.18.07.05.14a2.18,2.18,0,0,1-.27.65l.09.23L243,528a1,1,0,0,1,0,.27l0,.29.08.32.08.1.13.13a.8.8,0,0,1-.22.31l-.23-.09,0,.16-.39-.07v-.24l-.06-.15.06-.29-.06-.13,0-.61,0-.42c-.08,0-.12-.06-.12-.1a.43.43,0,0,1,.12-.22V527a2.28,2.28,0,0,0,0-.3l.07-.09-.07-.34.05-.28-.05-.16.05-.49-.09-.14.05-.16-.1-.36,0-.29a2.5,2.5,0,0,0,0-.32l0-.09-.1-.61-.14-.09.14-.31a1,1,0,0,1-.19-.6v-.24a.44.44,0,0,1-.1-.17,1,1,0,0,1,.44-.29l.14,0a.88.88,0,0,0,.19.42l0,.45.18,1.36a.31.31,0,0,1-.11.23l.09.38,0,.28,0,.29,0,.22.13.28-.08.05.06.41.14,0,.06-.35a1.27,1.27,0,0,1,.21-.32.57.57,0,0,0,.23-.45v-.1l.12-.06s0,0,0-.06,0-.07.06-.07h.06l.1-.35.27-.19,0-.1h.12l0-.2.27-.13,0-.22.26,0a.89.89,0,0,0,.26-.34l.17,0a1.72,1.72,0,0,1,.32-.32.1.1,0,0,0,.09-.06l.29-.15.07-.14.16-.08a1.54,1.54,0,0,1,.63-.35H247a.37.37,0,0,0,.26-.09l.15.06a.4.4,0,0,1,.21-.09C247.78,522,247.9,522,247.91,522Z" transform="translate(-118.46 -261.99)"/><path class="cls-3" d="M251,517.63a.71.71,0,0,1-.3.3V518l-.16.18c0,.07-.1.1-.14.1l-.1,0-.48.58-.13.19-.43.13-.22.33-.2.09a1.56,1.56,0,0,0-.39.34l-.11-.07,0-.22.42-.18c0-.3.13-.46.22-.5s.14-.06.14-.08v-.07l.08-.05,0,0,0-.13h.07l-.07-.16h.28v-.26l.14,0,.08-.14.15-.06.13-.23s.08,0,.1-.11h.11l0-.18a.69.69,0,0,0,.22-.36A.69.69,0,0,1,251,517.63Zm1.79,9,0,.18-.16.12-.07.22-.25.07a.87.87,0,0,1-.26.45l-.22.08-.19.21a1.51,1.51,0,0,0-.31.32h-.12a.51.51,0,0,1-.39.21,1.83,1.83,0,0,0-.22.28,1,1,0,0,1-.34.13l-.26,0-.07.11h-.29l-.16.12-.45-.33-.25-.58,0-.93,0-.19.17-1.48.12-.08-.05-.93a1.06,1.06,0,0,1,0-.31,1.92,1.92,0,0,0,.1-.4l.07,0a1,1,0,0,0-.13-.5l.07-.24v-.33l.09-.12a2.15,2.15,0,0,0-.06-.29,1,1,0,0,1,0-.17c0-.1,0-.15.07-.15s0,0,0,0a1.38,1.38,0,0,1-.12-.36c0-.09,0-.13.12-.13a.33.33,0,0,1,.12,0,.34.34,0,0,0,.14,0l.08,0c0-.1.05-.15.13-.15s.11,0,.12,0,0,.14,0,.34l.2.09-.16.2-.19,1.15.15.29a.41.41,0,0,1-.16.34l-.06.23.06.2-.21.74v.09l-.08.6v.43l-.14.29,0,.25,0,.41a1.89,1.89,0,0,0,.15.81v.09l.15.11.19,0,.21.08.25-.12a.82.82,0,0,1,.31-.13l.13-.12,0,0,.11-.14.18,0a1,1,0,0,1,.45-.24.3.3,0,0,1,.25-.14l.11-.17.2,0,0-.19h.08l0-.1.38-.19,0-.22.35,0Z" transform="translate(-118.46 -261.99)"/><path class="cls-3" d="M259.92,526.19l-.29.31a.78.78,0,0,1,0,.24.66.66,0,0,1-.06.2,1,1,0,0,1-.13.16,2.1,2.1,0,0,0-.18.31,1.94,1.94,0,0,1-.21.34,3.33,3.33,0,0,1-.25.28,2.37,2.37,0,0,1-.3.23,1.74,1.74,0,0,0-.44.31l-.15,0a1.16,1.16,0,0,0-.34.22l-.2,0-.41.3-.14-.08-.38.17-.36-.09-.11.13-.22,0-.21,0-.06-.06-.25,0a.71.71,0,0,1-.25-.11l-.29-.24-.26-.4a.65.65,0,0,1-.19-.48v-.07l-.19-.31v-.27l-.08-.11,0-.36-.07-.29.12-.28-.08-.13.18-.29-.05-.38,0-.16a.75.75,0,0,1,.17-.36l0-.41.13-.11-.05-.11.12-.18a6.29,6.29,0,0,1,.38-1.13l.31-.31.09-.22.14-.24a1,1,0,0,1,.18-.4.56.56,0,0,0,.36-.15q0-.3.54-.3a1.52,1.52,0,0,1,.34.09.51.51,0,0,1,.34.29c.18,0,.27.07.27.19l.52,0,0,.17.11.12,0,.21.13.17,0,.23,0,.13,0,.36.09.12v.19l.05.38-.36.19-.37-.45,0-.58-.07-.21v-.22l-.21-.25a1.6,1.6,0,0,0-.41-.32l-.24.11h-.22a.77.77,0,0,0-.38.14,1.69,1.69,0,0,0-.41.53,1.48,1.48,0,0,1-.38.49l0,.26-.15.12v.36l-.17.24-.07.25a1.4,1.4,0,0,0-.15.42q0,.23-.09.24l0,.29-.16.38,0,.27-.07,0V527h0l0,.16-.08.07.26.31a1,1,0,0,1,.1.29l-.06,0,.19.26.14.05,0,.18,1,.22a.31.31,0,0,1,.22-.13l.19,0a.47.47,0,0,1,.24-.12l.14,0,.12-.07a.73.73,0,0,1,.34-.09c.1-.2.23-.3.38-.3h.14c.31-.12.46-.24.46-.34a.37.37,0,0,1,.38-.19h.07c.49-.55.72-.84.7-.89a1.13,1.13,0,0,0,.31-.5l.16-.11v-.23C259.87,525.77,259.92,525.93,259.92,526.19Z" transform="translate(-118.46 -261.99)"/><path class="cls-3" d="M269.75,528.19H270c.13,0,.19,0,.19.14s-.06.17-.19.27l-.13.07-.09.1a1.31,1.31,0,0,1-.31.19l-.29.09c-.07.07-.26.1-.59.1l-.26-.07a.85.85,0,0,1-.28-.12l-.59-.53-.13-.55-.18-.17v-.09a.88.88,0,0,0-.12-.46l0-.43c0-.21.07-.34.07-.38a.83.83,0,0,0-.11-.4l.06-.8-.21.1-.12.19-.17.12a.48.48,0,0,0-.17.21l-.16,0a.45.45,0,0,0-.2.36.56.56,0,0,0-.34.31,1,1,0,0,1-.27.41.8.8,0,0,1-.31.25.38.38,0,0,0-.16.11l-.52.63h-.06l-.42.5-.33.19-.15.23a4.78,4.78,0,0,0-.74.3l-.27-.17h-.12c-.07,0-.11,0-.11-.09a.31.31,0,0,1,0-.11l-.19-.1a.38.38,0,0,1,.06-.19l-.23-.23.14-.18h-.2l-.13-.34.13-.11-.16-.24c0-.29,0-.44.06-.46v-.31a1.28,1.28,0,0,1,.09-.38l-.14-.1a.69.69,0,0,0,.14-.35.7.7,0,0,0-.08-.29c.07,0,.1-.12.1-.28a1.06,1.06,0,0,0,0-.23l-.07-.6.22-1.26c0-.22,0-.44-.09-.68l-.07-.31c0-.19.1-.28.3-.28l.27.07.13.16-.08.37,0,.91,0,.57-.12.29.07.18-.07.27v.24c-.05,0-.06,0-.05.11a.36.36,0,0,1,0,.11.35.35,0,0,1-.07.21l.12.15-.17.22.1.16-.05.24.05.29v.34l.11.13-.09.43a.56.56,0,0,0,.11.27l-.06.19.09.26a1.74,1.74,0,0,1,.38.34.6.6,0,0,0,.34-.18,2.52,2.52,0,0,1,.38-.3s0,0-.07,0c.19-.09.29-.19.29-.29a1.11,1.11,0,0,0,.29-.07l0-.22.18-.07a1,1,0,0,1,.6-.34l0-.18.32-.27a.37.37,0,0,1,.38-.36l.07-.24.16-.07.23-.34h.11v-.11l.17-.09.1-.25a3.26,3.26,0,0,1,.43-.2l.07-.2.14,0v-.11l.07,0c0-.29.13-.43.3-.43l-.05-.06.33-1h.08v-.24h0s.14-.22.31-.66l.32,0,0,.07.18.34-.14.67-.27.4-.18.66-.23.16v.4l-.13.25,0,.29-.12.13,0,.79-.07,1,.06.11,0,.14h.05v.27a1.56,1.56,0,0,1,.29.54l.26.06.05.16a4.43,4.43,0,0,1,.43.2l.24,0,.19,0,.28-.11A1.82,1.82,0,0,0,269.75,528.19Z" transform="translate(-118.46 -261.99)"/><path class="cls-3" d="M275.72,526.86a.22.22,0,0,1,.11.16c0,.15,0,.23-.11.25-.14.23-.29.34-.43.34s-.2.26-.59.6a.45.45,0,0,0-.23.1l-.25.23a.31.31,0,0,0-.32.21l-.18,0-.07,0,0,.14h-.05a1.07,1.07,0,0,0-.38.11l-.31.12-.18.07h-.13l-.1-.15-.17-.15a1.65,1.65,0,0,0-.27-.47L272,528v-.21l-.08-.12V526.5a.27.27,0,0,0,.06-.14.64.64,0,0,0-.13-.33c.05-.5.07-.77.07-.82a.48.48,0,0,0-.14-.33l.14-.07.06-.69,0-.29.13-.32-.09-.36a.75.75,0,0,0,.15-.47v-.59l.05-.15,0-.87.05-.87a1.42,1.42,0,0,1-.08-.68l.05-.55-.05-.19.08-.82.21-.08.14-.06.07,0,.09.29.18.16-.13.18v.07a.49.49,0,0,0,.06.22c0,.2-.06.3-.13.3l.05.1a3,3,0,0,0,.1.75l-.15.47.11.16a1.39,1.39,0,0,0-.2.68.2.2,0,0,0,.16.22l-.13.34a1,1,0,0,1,.08.22.62.62,0,0,1-.08.23l0,.21-.09.58v.28a2.59,2.59,0,0,1-.15.57l.09.38-.05.68-.1.07.12.22-.08.34-.07.54.07.13-.07,0a.74.74,0,0,1,.11.43.53.53,0,0,1-.08.22l.08.2,0,.27.08.19,0,.15.19.59.22.09a1.25,1.25,0,0,1,.42-.16l.1,0,.25-.21a.65.65,0,0,1,.22-.1.36.36,0,0,1,.31-.17l.08-.1.14,0,0-.09.18,0,.16-.13.18-.05.17-.16a1.56,1.56,0,0,1,.28-.22s0-.09.11-.13a.1.1,0,0,0,.07,0A.36.36,0,0,0,275.72,526.86Z" transform="translate(-118.46 -261.99)"/><path class="cls-3" d="M278.72,522.31l1.23.05,1.19-.05h1.06c.13,0,.19.05.19.15s-.1.21-.29.24a.33.33,0,0,0-.15,0,.34.34,0,0,0-.23.08l-.25,0-.49,0a1.37,1.37,0,0,1-.66.18l-.35-.06-.17.17h-.17v-.11l-.31.14h-.16l-.05.16a2.94,2.94,0,0,0-.53-.07c0,.07,0,.11-.08.11s-.06,0-.11-.07l-.25,0-.18.19,0,.88,0,.52-.05.68,0,.76,0,.36v.32l.21.45v.08a.79.79,0,0,0,.36.59l.05.15.33.07.24.25.66.12.88-.2.26.08.62-.29.24,0a.33.33,0,0,1,.12.23c0,.08-.07.18-.23.29l-.13-.06-.28.24-.6.07-.2.12-.21-.12a1.28,1.28,0,0,1-.63.16l-.36-.07h-.2l-.65-.38-.3-.43-.22-.24-.32-.86-.15-.81.08-.32-.15-.18.07-.2-.07-.33.18-.14-.07-.16,0-.21-.08-.24,0-.34,0-.18.08-.05v-.65q-.06-.24-.15-.24a.13.13,0,0,0-.11.07l-.2-.09-.28.07-.29-.21h-.15q-.21,0-.21-.24l0-.27-.13-.09.08-.16.26,0,.2,0,.29.09h.76l0-.41v-.41l-.12-.31.14-.11a.66.66,0,0,0,0-.13.22.22,0,0,0-.14-.19l0-.7-.15-.22,0-.16c-.12,0-.18-.07-.18-.14l.12-.48a1.63,1.63,0,0,0,.17-.24,1.92,1.92,0,0,1,.54.3v0l-.07.18a1,1,0,0,1,.12.39v.06a.59.59,0,0,0-.05.25.16.16,0,0,0,.05.14l0,.15,0,.19-.16.26.11.45-.07.54.07.11L278,522l.14.44h.33Z" transform="translate(-118.46 -261.99)"/><path class="cls-3" d="M291.75,528.19H292c.13,0,.19,0,.19.14s-.06.17-.19.27l-.13.07-.09.1a1.61,1.61,0,0,1-.31.19l-.29.09c-.07.07-.26.1-.59.1l-.26-.07a.85.85,0,0,1-.28-.12l-.59-.53-.13-.55-.18-.17v-.09a.88.88,0,0,0-.12-.46l0-.43c0-.21.07-.34.07-.38a.83.83,0,0,0-.11-.4l.05-.8-.2.1-.12.19-.17.12a.42.42,0,0,0-.17.21l-.16,0a.45.45,0,0,0-.2.36.56.56,0,0,0-.34.31,1.16,1.16,0,0,1-.27.41.87.87,0,0,1-.31.25.5.5,0,0,0-.17.11l-.51.63h-.06l-.42.5-.33.19-.15.23a4.78,4.78,0,0,0-.74.3l-.27-.17h-.13c-.07,0-.1,0-.1-.09a.18.18,0,0,1,0-.11l-.19-.1a.38.38,0,0,1,.06-.19l-.23-.23.14-.18h-.2l-.13-.34.13-.11-.16-.24c0-.29,0-.44.06-.46v-.31a1,1,0,0,1,.09-.38l-.15-.1a.64.64,0,0,0,.15-.35.91.91,0,0,0-.08-.29c.07,0,.1-.12.1-.28a1.06,1.06,0,0,0,0-.23l-.07-.6.21-1.26a5.69,5.69,0,0,0-.08-.68l-.07-.31c0-.19.1-.28.3-.28l.27.07.13.16-.08.37,0,.91,0,.57-.12.29.07.18-.07.27v.24c-.05,0-.06,0-.05.11a.36.36,0,0,1,0,.11.35.35,0,0,1-.07.21l.12.15-.17.22.1.16-.05.24.05.29v.34l.11.13-.09.43a.53.53,0,0,0,.1.27l-.05.19.09.26a1.74,1.74,0,0,1,.38.34.6.6,0,0,0,.34-.18,2.52,2.52,0,0,1,.38-.3s0,0-.07,0c.19-.09.29-.19.29-.29a1.11,1.11,0,0,0,.29-.07l0-.22.18-.07a.94.94,0,0,1,.6-.34v-.18l.33-.27a.37.37,0,0,1,.38-.36l.07-.24.16-.07.23-.34h.11v-.11l.17-.09.1-.25a3.26,3.26,0,0,1,.43-.2l.07-.2.13,0v-.11l.07,0c0-.29.14-.43.31-.43l-.05-.06.33-1h.08v-.24h0s.14-.22.31-.66l.31,0,0,.07.18.34-.15.67-.26.4-.18.66-.23.16v.4l-.13.25,0,.29-.12.13,0,.79-.07,1,.06.11,0,.14h.05v.27a1.56,1.56,0,0,1,.29.54l.26.06.05.16a4.43,4.43,0,0,1,.43.2l.24,0,.19,0,.28-.11A1.82,1.82,0,0,0,291.75,528.19Z" transform="translate(-118.46 -261.99)"/><path class="cls-3" d="M299.77,522l0,.21-.53.08-.34.25-.23,0-.29.17-.29.13a1,1,0,0,1-.34.23v.09l-.26.13-.19.29h-.19l-.1.28-.2.13a.52.52,0,0,0-.19.2l-.18.32a.59.59,0,0,0-.24.49l-.08,0,0,.12-.13.08-.12.31a.87.87,0,0,0-.2.41l-.17.07v.38a.55.55,0,0,0-.08.2l0,.06-.17.07.05.14a3,3,0,0,1-.27.65l.08.23-.17.29a1.57,1.57,0,0,1,0,.27l0,.29.08.32a.34.34,0,0,0,.08.1l.13.13a1.08,1.08,0,0,1-.22.31l-.24-.09,0,.16-.4-.07v-.24l-.05-.15.05-.29-.05-.13,0-.61,0-.42c-.08,0-.12-.06-.12-.1a.43.43,0,0,1,.12-.22V527a1.9,1.9,0,0,0,0-.3l.07-.09-.07-.34.05-.28-.05-.16.05-.49-.08-.14.05-.16-.11-.36,0-.29a1.6,1.6,0,0,0,0-.32l.06-.09-.11-.61-.13-.09.13-.31a1,1,0,0,1-.18-.6v-.24a.48.48,0,0,1-.11-.17,1,1,0,0,1,.45-.29l.13,0a1,1,0,0,0,.19.42l0,.45.17,1.36a.3.3,0,0,1-.1.23l.09.38-.06.28.06.29,0,.22.13.28-.08.05.07.41.14,0,.06-.35s.07-.15.21-.32a.6.6,0,0,0,.23-.45v-.1l.11-.06s0,0,.05-.06,0-.07.06-.07h.05l.11-.35.27-.19,0-.1h.12l-.05-.2.27-.13,0-.22.25,0a.8.8,0,0,0,.26-.34l.17,0a1.59,1.59,0,0,1,.33-.32.08.08,0,0,0,.08-.06l.29-.15.07-.14.16-.08a1.5,1.5,0,0,1,.64-.35h.07a.35.35,0,0,0,.25-.09l.16.06a.37.37,0,0,1,.2-.09C299.65,522,299.76,522,299.77,522Z" transform="translate(-118.46 -261.99)"/><path class="cls-3" d="M306.76,528.9l-.25.12-.06.16a1.07,1.07,0,0,0-.27.09l-.09-.06-.13.06-.28-.34v-.39l-.13-.12,0-.55-.1-1.15.07-.38-.12-.2.15-.09-.1-.16,0-.17.09-.07,0-.22h.1v-.36l0-.17c-.05,0-.11-.07-.17-.17l-.28.13a.67.67,0,0,1-.24.29l0,.2-.2.08,0,.26-.12.09v.13a.7.7,0,0,0-.25.32l-.13.07-.27.49-.43.43-.14.24-.38.39-.09.21-.52.36-.58.69-.2,0a.62.62,0,0,0-.27.19h-.05c-.1,0-.18-.1-.24-.29-.45-.18-.69-.43-.71-.76l.14-.09a2.42,2.42,0,0,1-.14-.7l-.1-.07.06-.1a.31.31,0,0,0,.06-.18c0-.08,0-.2,0-.35l.12-.67a.39.39,0,0,1,0-.13.41.41,0,0,1,.06-.2.63.63,0,0,1,0-.19.54.54,0,0,1,0-.19h.07a.64.64,0,0,0,.15-.35.2.2,0,0,0-.06-.14.15.15,0,0,1-.06-.07s0-.07.1-.09-.13,0-.13-.11.06-.09.18-.09v0a.66.66,0,0,1,.11-.36,1,1,0,0,0,.12-.22l-.12,0,.24-.38v-.08a.93.93,0,0,1,.24-.65l0-.33.08-.05a.28.28,0,0,1-.06-.18s0,0,.12,0v-.29c.05,0,.08,0,.08-.09a.22.22,0,0,0,0-.09,1.71,1.71,0,0,1,.24-.29,1.48,1.48,0,0,0,.26-.36h.05c.13,0,.2,0,.2-.09a.14.14,0,0,0,0-.09c.24,0,.37,0,.38-.14l.32-.17.93.08v.07l.76.16h.07c.11,0,.17.05.17.15l.08,0a.2.2,0,0,0,.21.16l.08,0,.16.16.38.1v.16a2.63,2.63,0,0,1,.65-.29v.29h-.09l.18.08,0,0,.14.46-.15.17-.07.3a1.62,1.62,0,0,1-.17.37l.11.23-.1.14a.77.77,0,0,0-.08.4.11.11,0,0,1,.05.09l0,.15v.12l-.05.2,0,.16-.11.13,0,.39-.06.06.06.08-.06.05s0,0,0,.07a.37.37,0,0,1-.05.16l.05.11-.09.16s-.07.11-.07.25l.07.23-.16.22a.54.54,0,0,0,.16.24,2,2,0,0,0-.22.69l.15,0v.1s0,0,0,.12a.75.75,0,0,1-.13.36H306l.05.27.36,0,.12.23s-.05,0-.05.06.06.1.17.17h0s0,0,0,0S306.66,528.81,306.76,528.9Zm-.92-6.47-.11-.33-.29-.08-.5-.45a.34.34,0,0,0-.18-.07l-.14,0-.09-.09h-.29l-.09-.11-.2.08-.09-.08-.15,0-.28,0a1.79,1.79,0,0,0-.63.2l0,.07-.16,0,0,.08-.2,0v.11a1.46,1.46,0,0,0-.42.57,5.73,5.73,0,0,1-.32.92l.14.07-.23.2.07.14a1,1,0,0,0-.16.56v.09l-.13.2v.31a.57.57,0,0,0-.16.32l-.07.07v.33l-.06.08a2.18,2.18,0,0,1-.07.49l.1.22a.69.69,0,0,0-.26.22l.07.14-.1.14.14.36-.16.22,0,.43-.06.2.09.05,0,.13a.6.6,0,0,1,.25.2l.42-.1a.42.42,0,0,1,.39-.28l0-.13.28-.08s0,0,0-.1a.37.37,0,0,1,.16-.18h0s.06,0,.06-.07l.32-.38h-.07l.2-.18a.71.71,0,0,1,.29-.16l.13-.34c.22-.1.35-.22.38-.38h.1l.18-.23,0-.15.17,0a.18.18,0,0,1,0-.08.61.61,0,0,1,.13-.2l.19-.29.08,0a.47.47,0,0,1,.19-.33.42.42,0,0,1,.14-.22.27.27,0,0,1,.15-.08h.13v-.22s0-.05,0-.07a.16.16,0,0,0-.05-.11,1.17,1.17,0,0,1,.25-.33l0-.19.12-.1,0-.15a.81.81,0,0,0,.13-.33l.16-.16Z" transform="translate(-118.46 -261.99)"/><path class="cls-3" d="M313.34,526.86a.21.21,0,0,1,.12.16c0,.15,0,.23-.12.25-.14.23-.28.34-.43.34s-.19.26-.59.6a.55.55,0,0,0-.23.1l-.24.23a.33.33,0,0,0-.33.21l-.17,0-.07,0,0,.14h-.06a1.09,1.09,0,0,0-.37.11l-.31.12-.19.07h-.12l-.11-.15-.16-.15a1.65,1.65,0,0,0-.27-.47l-.06-.43,0-.21-.09-.12,0-.51,0-.45,0-.22a.34.34,0,0,0,.05-.14.7.7,0,0,0-.12-.33c.05-.5.07-.77.07-.82a.53.53,0,0,0-.14-.33l.14-.07.05-.69,0-.29.13-.32-.1-.36a.75.75,0,0,0,.15-.47v-.59l0-.15v-.87l.05-.87a1.56,1.56,0,0,1-.09-.68l0-.55,0-.19.09-.82.21-.08.13-.06a.13.13,0,0,1,.07,0l.09.29.19.16-.14.18v.07a.49.49,0,0,0,.06.22c0,.2-.05.3-.13.3l.06.1a3.09,3.09,0,0,0,.09.75l-.15.47.12.16a1.29,1.29,0,0,0-.2.68.2.2,0,0,0,.15.22l-.12.34a.78.78,0,0,1,.07.22.56.56,0,0,1-.07.23l0,.21-.09.58v.28a5,5,0,0,1-.15.57l.09.38-.06.68L310,525l.11.22-.08.34-.07.54.07.13-.07,0a.67.67,0,0,1,.12.43.74.74,0,0,1-.08.22l.08.2-.05.27.08.19,0,.15.19.59.22.09a1.23,1.23,0,0,1,.41-.16l.11,0,.24-.21a.77.77,0,0,1,.22-.1.38.38,0,0,1,.31-.17l.09-.1.13,0,0-.09.17,0,.17-.13.18-.05.17-.16A1.54,1.54,0,0,1,313,527s0-.09.12-.13a.1.1,0,0,0,.07,0A.31.31,0,0,0,313.34,526.86Z" transform="translate(-118.46 -261.99)"/><path class="cls-3" d="M329.3,525.89l-.33.19.07.28c0,.15-.15.23-.45.23l-.14.37-.6.4a2.68,2.68,0,0,1-.34.44.92.92,0,0,0-.54.21l-.37.29-.2.12a1.17,1.17,0,0,1-.24.09,1.44,1.44,0,0,0-.33.15,1.1,1.1,0,0,1-.27.13h-.25a1.59,1.59,0,0,0-.86.41l-.27-.05-.22.07a1.3,1.3,0,0,1-.32.08.81.81,0,0,1-.25,0l-.19,0h0a.33.33,0,0,1-.22.1.27.27,0,0,1-.19-.12l-.31,0a.49.49,0,0,0-.18.05l-.25-.09-.17.07-.36-.15-.16-.13a1.82,1.82,0,0,0-.41-.16l-.1-.23-.46-.13s-.05-.08-.08-.22a.39.39,0,0,0-.14-.27.65.65,0,0,1-.16-.17,1.29,1.29,0,0,1-.12-.26,2.08,2.08,0,0,0-.13-.3,1.13,1.13,0,0,1-.17-.35,1,1,0,0,1-.06-.32v-.06l0-.55a.8.8,0,0,1-.1-.38l.1-.31v-.3l.11-.06,0-.29.22-.82.16-.4.08,0,0-.27s.1-.12.12-.31a.81.81,0,0,1,.21-.48.54.54,0,0,0,.18-.31.35.35,0,0,0-.07-.23l.21-.08a1.58,1.58,0,0,1,.35-.37l.09-.38.23-.14.07-.29a.75.75,0,0,0,.52-.31.55.55,0,0,1,.35-.28l.12-.11a1,1,0,0,1,.37-.16l0,0,.2-.2.12.15.18,0a1.61,1.61,0,0,1,.58-.1l.36.06.13.06.56.21,1.27.8a.7.7,0,0,0,.26.38l.1.34a1.93,1.93,0,0,1,.17.56l0,.39a1.64,1.64,0,0,0,0,.38l0,0s0,.09-.12.18l-.17.21-.32.07-.12-.09A.29.29,0,0,1,326,523l-.06-.1a.37.37,0,0,1-.05-.15,1.94,1.94,0,0,1-.05-.2v-.27l-.06-.31v-.43l.07-.33a1.33,1.33,0,0,0-.85-.71c-.07,0-.1,0-.1-.06v0a.19.19,0,0,0-.08-.07.18.18,0,0,1-.1-.09h-.38l-.25-.2c-.18,0-.27,0-.27.11l-.16-.11-.18.12-.24,0-.17.13-.22,0a.66.66,0,0,0-.27.06l-.29.41-.49.48-.37.58-.16.07-.15.47-.25.2v.25l-.31.52-.15.59h-.12l.07.35-.17.34,0,.12h-.11V525l-.07.06,0,.7-.08.53a.83.83,0,0,1,.2.46l.16.13v.22l.13.19-.08.2.35.36V528l.57.22-.06.23.74.06.23.23.38-.13.2.24.41-.15a.44.44,0,0,1,.24-.12s.05,0,.05,0l.27,0,.15.13.29-.11h.09a.48.48,0,0,0,.38-.14.45.45,0,0,1,.37-.13l.26,0c0-.13.15-.2.37-.21a1,1,0,0,1,.45-.25,1.63,1.63,0,0,0,.52-.18l.13-.22a4.46,4.46,0,0,0,.5-.22l.2-.24.3-.14,1-1,.33-.18Z" transform="translate(-118.46 -261.99)"/><path class="cls-3" d="M335.9,524.77l-.13.38.07.16-.06.42a.71.71,0,0,1-.13.28v.22l-.13.36-.11.15a2.42,2.42,0,0,0-.17.46l-.13,0-.07.24-.2.12-.15.33-.26.12,0,.24-.23.09-.21.28a.51.51,0,0,1-.24.12.87.87,0,0,0-.25.11c0,.18-.2.29-.5.31a.33.33,0,0,1-.25.14l-.15,0a1,1,0,0,1-.45.26l-.14.22-.24-.14-.05.11-.27-.11-.63-.06a2.82,2.82,0,0,0-.47-.64l.07-.24-.25-.65.11-.21-.11-.49.11-.28a2.36,2.36,0,0,0,0-.24,1.84,1.84,0,0,1,0-.24.34.34,0,0,1,.19-.3v-.09a.82.82,0,0,1,.1-.4h.11a.48.48,0,0,0,.13-.34l-.05-.12.05-.28v-.17a.6.6,0,0,0,.16-.4l-.05-.29a.33.33,0,0,1,.05-.21q.27-.13.27-.27a.32.32,0,0,0-.07-.19l.18-.3a.25.25,0,0,1,.11-.12l.09-.06,0-.17a.27.27,0,0,0,.28-.29,1,1,0,0,0-.05-.33.78.78,0,0,0,.79-.62h.12c.08-.08.14-.12.17-.12l.16.05a2,2,0,0,0,.42,0l.28-.12v.12a1,1,0,0,1,.46.2h.25c.06.12.11.18.16.18l0,0a1.4,1.4,0,0,0,.41.45l.09.22.17.07.28.41.29.83v.16Zm-.57.51a.41.41,0,0,0,.1-.22.19.19,0,0,0-.06-.13.21.21,0,0,1-.06-.08h.1a.3.3,0,0,0-.12-.19l0,0-.13-.29,0-.4-.17-.28c-.13-.08-.19-.14-.19-.18v-.06a.11.11,0,0,0-.07-.09.07.07,0,0,1-.06-.07v0a1.25,1.25,0,0,1,.07-.23l-.11-.09h-.18l-.07-.14.07-.1-.23-.13-.18-.16-.51-.21-.21,0c-.35,0-.51.1-.51.29l0,.6-.36,0-.57.34-.05.19-.2.14-.09.51-.17.13s-.06.1-.06.25a1,1,0,0,0,0,.33l-.22.12c-.05,0-.07.14-.07.34a.38.38,0,0,1-.17.28v.17l-.16.26v.16l0,.11,0,.25-.24.58.08.19v.42l-.08.3,0,.44.26.34a.85.85,0,0,0,.32.2l.05.08.12,0,.12,0,.21-.08h.43l.2-.05.05-.12h.19c.18,0,.28-.06.28-.18l.25.07.06-.14.16,0,.09-.2c.13-.1.2-.18.21-.25h.29L334,528l.31-.27.11-.17a.75.75,0,0,1,.16-.15l.25-.13a2.42,2.42,0,0,1,.16-.5l0-.16.25-.11,0-.09c.07-.1.13-.19.19-.26h-.09a.25.25,0,0,0,.07-.16,1.05,1.05,0,0,0,0-.13.43.43,0,0,1,0-.1.79.79,0,0,1,0-.25.56.56,0,0,0,.06-.17A.08.08,0,0,0,335.33,525.28Z" transform="translate(-118.46 -261.99)"/><path class="cls-3" d="M351.89,527.53l-.09.14-.13,0a.32.32,0,0,1-.12.27c-.07.07-.11.12-.11.15v0l-.06,0a.44.44,0,0,1-.19.22.45.45,0,0,1-.17.09l-.16,0v.18l-.17.14-.23,0a.82.82,0,0,1-.39.11,5,5,0,0,1-.6-.08q-.06-.09-.12-.09a.24.24,0,0,0-.15.06c0-.09-.13-.17-.29-.25l0-.13a.35.35,0,0,1-.2-.36l0-.16-.22-.17-.11-.53-.16-.29v-.13l-.12-.58,0-.23-.14-.63V525l0-.56-.07-.7-.24.26-.37.66-.16.37a1.07,1.07,0,0,0-.45.58c-.12,0-.18.14-.18.4a1.5,1.5,0,0,0-.19.25l-.13.22,0,.08v0a1.16,1.16,0,0,0-.38.6,1.68,1.68,0,0,0-.18.28,4.36,4.36,0,0,1-.46.61.56.56,0,0,0-.28.33.29.29,0,0,1-.19.2c-.07,0-.11.08-.11.18v.08a1.61,1.61,0,0,0-.54.18c-.11,0-.18-.08-.22-.21l0-.26-.1-.22v-.21l-.15-.6a.37.37,0,0,0,0-.12.51.51,0,0,0-.09-.24l.07-.6-.07-.13.07-.29,0-.16v-.13l-.07-.16.13-.27-.09-.56,0-.16.06-.67-.13-.41,0-.32-.09-.26q-.17-.4-.21-.54c0-.08-.06-.13-.11-.13H343a1.62,1.62,0,0,0-.45.25l-.26.34-.22.22-.48.66,0,.2-.29.33-.12.34a.7.7,0,0,0-.17.31q-.06.21-.15.24a.59.59,0,0,0-.22.13l0,.32a1.88,1.88,0,0,0-.16.29.93.93,0,0,1-.19.27.67.67,0,0,0-.17.37c-.13,0-.2.08-.2.24s-.1.19-.2.19a1.09,1.09,0,0,0-.07.25v.06c-.14.12-.22.19-.22.22a.17.17,0,0,0,.06.12.64.64,0,0,0-.32.33,1,1,0,0,1-.18.29v.08a.25.25,0,0,1-.07.18,2.53,2.53,0,0,0-.25.22.41.41,0,0,1-.28.17c-.09,0-.15-.13-.19-.41a.31.31,0,0,0,0-.11.28.28,0,0,0-.12-.23v-.26a.58.58,0,0,1,.07-.28l-.09-.39,0-.29,0-.31v-.07a.4.4,0,0,1,.09-.29l0-.14a2.42,2.42,0,0,0,0-.28c0-.13,0-.21,0-.23v-.29a.69.69,0,0,1,.16-.28l-.14-.19a.1.1,0,0,0,0-.13.44.44,0,0,1,0-.1.52.52,0,0,1,.09-.21,1,1,0,0,0,.12-.31l-.12-.35,0-.17-.11-.62.06-.24-.11-.5,0-.32-.13-.28q.2-.42.36-.42l.07,0,.06.24a.27.27,0,0,1,.22.29l0,.38c0,.08.05.13.15.14a.87.87,0,0,0-.17.38v.06l.1.92-.05.68-.07.2.07.22-.05.08.08.14a.26.26,0,0,0-.13.22l0,.15a.24.24,0,0,1-.1.21l.07.51-.07.18a.57.57,0,0,0-.05.32,1.06,1.06,0,0,1,0,.2.28.28,0,0,1,0,.15l.08.19a.41.41,0,0,1-.08.19l.17.12.34-.45.07-.25a.41.41,0,0,0,.16-.16,1,1,0,0,0,.09-.21,1.36,1.36,0,0,1,.21-.37s.06,0,.11-.09a3,3,0,0,0,.19-.26,1.92,1.92,0,0,1,.26-.32.48.48,0,0,1,.08-.18,1,1,0,0,1,.11-.15,1.31,1.31,0,0,0,.15-.37l.2-.36,0-.13a.82.82,0,0,1,.17-.23l.34-.36s.11-.1.21-.31a1.61,1.61,0,0,1,.33-.49.48.48,0,0,0,.19-.29c.11,0,.16-.08.16-.17a.31.31,0,0,0,.22-.25l.06,0c.05,0,.12-.11.2-.34a.73.73,0,0,1,.38-.24l.43.11a.26.26,0,0,1,0,.11.26.26,0,0,1,0,.1l.12,0a1.28,1.28,0,0,0,.25.45v.29l.16.18v.23a1.68,1.68,0,0,1,.2.7l-.07.29.07.26-.16.19.09.57a1.35,1.35,0,0,0-.06.43l.06.48,0,.16,0,.18-.06.07a4.34,4.34,0,0,1,.13,1l0,.14-.08.07a.71.71,0,0,1,.13.41l.31.1.83-1a2.44,2.44,0,0,0,.16-.31,3.69,3.69,0,0,1,.2-.4c.06,0,.11-.08.13-.25s.1-.28.21-.3a.44.44,0,0,1,0-.19,1.77,1.77,0,0,1,.31-.23v0a.74.74,0,0,1,.34-.51,2.15,2.15,0,0,1,.23-.51,1.7,1.7,0,0,0,.32-.38l.18-.35a1.48,1.48,0,0,0,.17-.42c.19-.07.36-.3.48-.7.14,0,.23-.16.28-.38l.29-.13.24.13-.08.09.12.12c-.1,0-.14.08-.14.13a.14.14,0,0,0,.09.13l-.13.24-.1.82a.34.34,0,0,1,.12.12,1.19,1.19,0,0,0-.14.62l0,.32,0,.13.05.24-.06.07a.16.16,0,0,0-.05.1.35.35,0,0,0,.06.16c.07,0,.11.1.11.24a.14.14,0,0,1-.06.1.13.13,0,0,1,0,.1.29.29,0,0,1,0,.1,1.82,1.82,0,0,0,.16.73,2.6,2.6,0,0,1,.14.65l.23.12.09.39a.51.51,0,0,1,.26.24l.22.09.26,0a.68.68,0,0,0,.2,0,.78.78,0,0,0,.26-.06l.25-.13A2.09,2.09,0,0,1,351,528a4.5,4.5,0,0,0,.27-.43l.23-.11.11-.18h.25A1.08,1.08,0,0,0,351.89,527.53Z" transform="translate(-118.46 -261.99)"/><path class="cls-3" d="M359.27,527.2l-.17.24.11.07a1.25,1.25,0,0,1-.23.27l0,.23-.22,0-.06.13a1.6,1.6,0,0,1-.3.23l-.12,0a.91.91,0,0,1-.5.17l-.12-.08v.15l-.42-.2a.53.53,0,0,0-.19.13l-.07-.08-.55-.05-.32.05-.16-.14-.38.05-.18-.16a.68.68,0,0,1-.28.09.54.54,0,0,1-.28-.09.32.32,0,0,0-.08.2,1.54,1.54,0,0,0,0,.16.79.79,0,0,1,0,.22,1.13,1.13,0,0,1-.09.34l.07.24-.15.17a4.51,4.51,0,0,1,.06.7l-.06.51.06.63-.17.24.11.34-.11.41.17,0v.2c-.09,0-.13.08-.13.18a1.23,1.23,0,0,0,0,.18l.06,0a.69.69,0,0,0-.16.34l0,1.42c0,.21-.05.31-.14.31l-.25,0,0-.34-.09-.75.14-.29,0-.54-.1-.62c.09-.06.14-.12.14-.19a3,3,0,0,0-.11-.39l.12-.24-.12-.4.12-.31-.05-.32.17-.11c-.17,0-.26-.13-.26-.29a4.53,4.53,0,0,1,.14-.65l-.1-.21.07-.29-.07-.07.07-.1-.07-.65.1-.86-.12-.19.26-.12-.14,0-.1-.18-.11-.05.09-.06,0,.06,0-.09-.07-.07.2,0-.08-.11.08,0v-.09c-.08,0-.13-.08-.13-.13a.59.59,0,0,1,.05-.23l-.05-.2c-.07,0-.1-.05-.1-.09s0,0,.08,0h0v0h.11l-.13-.16.05-.24v-.21l0-.13-.07-.29.07-.32-.07-.25.07-.33-.07-.12,0-.29,0-.2,0-.28a.63.63,0,0,1-.12-.42h-.16l-.15-.09-.27.22v0l-.13,0h-.25l0,.1-.22,0-.16.17-.21,0-.15.27-.23-.11-.05.14q-.36-.19-.36-.39s0-.08.09-.11.1-.08.1-.12a1.06,1.06,0,0,0-.05-.19,1.47,1.47,0,0,1,.63-.16l.05,0,.16-.17a2.42,2.42,0,0,1,.48-.24l.06,0,.16-.18.4,0,.29-.1.05,0,.07-.38h.17a.9.9,0,0,0,.43.48l.07-.14.12.1.1-.06a1.27,1.27,0,0,1,.51.15,1.75,1.75,0,0,0,.4.16.45.45,0,0,1,.29.15l.11-.08,0,.13.24.12,0-.05.16.05.13.18a1,1,0,0,0,.18.17l.3.17,0,.1.22.07v0a.42.42,0,0,1,.24.33l.21.12.14.32h.08V524l.11.11a.87.87,0,0,1,.1.3l.14,0a.55.55,0,0,0,.23.47v.23l.14.2v.22l.09.2a1.11,1.11,0,0,1,.09.4l-.09,0,0,.15v.14l.09,0-.13.36Zm-.49-.55v-.26l-.09-.32.08-.18-.12-.24,0-.22-.15-.29-.07-.24-.33-.58-.18-.16-.13-.4-.23-.08-.25-.35v-.07l-.2-.06-.18,0-.24-.32-.12,0-.1-.17-.26,0H356l0-.07-.13.07-.09-.11-.13,0-.07-.13-.16,0-.58-.1a.26.26,0,0,0-.16.24.19.19,0,0,0,0,.09.91.91,0,0,1,0,.31l-.06.37.13.4.14.13-.14.32,0,.31-.1.65.07.14-.09.22.16.21-.09.06,0,.23.14.09-.14.16.1.18-.17.24.07.36,0,.29.09.32.67,0,0,.11a.83.83,0,0,1,.13-.15l.18.2a.3.3,0,0,0,.14,0l.11,0a1.46,1.46,0,0,1,.3.07c0-.07.08-.1.14-.1s.05,0,.07.07h.28l.22,0,.27-.1,0,.07a1.75,1.75,0,0,0,.77-.2h.05c.1,0,.14-.06.14-.16l.14,0v-.2l.16,0,0-.17-.06-.19.14-.1,0-.11Z" transform="translate(-118.46 -261.99)"/><path class="cls-3" d="M367.61,528.9l-.26.12-.05.16a1.07,1.07,0,0,0-.27.09l-.09-.06-.13.06-.28-.34v-.39l-.14-.12,0-.55-.11-1.15.07-.38-.12-.2.16-.09-.11-.16,0-.17.09-.07,0-.22h.1v-.36l0-.17c-.05,0-.1-.07-.17-.17l-.28.13a.6.6,0,0,1-.23.29l0,.2-.2.08,0,.26-.12.09v.13a.8.8,0,0,0-.26.32l-.12.07-.27.49-.43.43-.14.24-.38.39-.1.21-.52.36-.58.69-.19,0a.62.62,0,0,0-.27.19h-.06c-.09,0-.17-.1-.23-.29-.45-.18-.69-.43-.71-.76l.14-.09a2.13,2.13,0,0,1-.14-.7l-.1-.07.06-.1a.44.44,0,0,0,.05-.18c0-.08,0-.2.06-.35l.12-.67a.39.39,0,0,1,0-.13.53.53,0,0,1,0-.2,1,1,0,0,1,0-.19.81.81,0,0,1,0-.19h.07a.64.64,0,0,0,.15-.35.24.24,0,0,0-.05-.14.15.15,0,0,1-.06-.07s0-.07.1-.09c-.09,0-.14,0-.14-.11s.07-.09.19-.09v0a.66.66,0,0,1,.11-.36A1,1,0,0,0,362,524l-.13,0,.24-.38v-.08a.9.9,0,0,1,.25-.65l0-.33.08-.05a.28.28,0,0,1-.06-.18s0,0,.11,0v-.29q.09,0,.09-.09a.2.2,0,0,0,0-.09,2.9,2.9,0,0,1,.25-.29,1.38,1.38,0,0,0,.25-.36h.06c.13,0,.2,0,.2-.09a.14.14,0,0,0-.05-.09c.24,0,.36,0,.37-.14l.33-.17.93.08v.07l.76.16h.07c.11,0,.16.05.16.15l.09,0a.19.19,0,0,0,.2.16l.09,0,.16.16.38.1v.16a2.47,2.47,0,0,1,.65-.29v.29h-.09l.18.08,0,0,.14.46-.16.17-.07.3a1.52,1.52,0,0,1-.16.37l.11.23-.1.14a.68.68,0,0,0-.08.4.11.11,0,0,1,.05.09l0,.15,0,.12,0,.2,0,.16-.1.13,0,.39-.05.06.05.08-.05.05a.1.1,0,0,1,0,.07.29.29,0,0,1-.06.16l.06.11-.09.16c-.05,0-.07.11-.07.25l.07.23-.17.22a.64.64,0,0,0,.17.24,1.77,1.77,0,0,0-.22.69l.15,0,0,.1a.22.22,0,0,1,0,.12.75.75,0,0,1-.13.36h.11l0,.27.36,0,.13.23s-.05,0-.05.06.05.1.17.17h0s0,0,0,0S367.51,528.81,367.61,528.9Zm-.93-6.47-.1-.33-.29-.08-.5-.45a.37.37,0,0,0-.19-.07l-.14,0-.08-.09h-.29l-.09-.11-.2.08-.09-.08-.15,0-.28,0a1.83,1.83,0,0,0-.64.2l0,.07-.16,0,0,.08-.21,0v.11a1.58,1.58,0,0,0-.41.57,6.91,6.91,0,0,1-.32.92l.14.07-.23.2.07.14a1,1,0,0,0-.16.56v.09l-.13.2v.31a.52.52,0,0,0-.16.32l-.07.07v.33l-.06.08a3,3,0,0,1-.07.49l.09.22a.67.67,0,0,0-.25.22l.07.14-.11.14.14.36-.15.22v.43l-.05.2.09.05,0,.13a.63.63,0,0,1,.26.2l.41-.1a.45.45,0,0,1,.4-.28l0-.13.29-.08s0,0,0-.1a.37.37,0,0,1,.16-.18h0s.05,0,.05-.07l.33-.38h-.07l.19-.18a.79.79,0,0,1,.29-.16l.13-.34c.23-.1.35-.22.38-.38h.11l.17-.23,0-.15.16,0a.27.27,0,0,1,0-.08.7.7,0,0,1,.12-.2l.2-.29.08,0a.44.44,0,0,1,.19-.33.37.37,0,0,1,.14-.22.27.27,0,0,1,.15-.08H366l0-.22a.13.13,0,0,0,0-.07.13.13,0,0,0,0-.11,1.15,1.15,0,0,1,.26-.33l0-.19.12-.1,0-.15a1,1,0,0,0,.13-.33l.16-.16Z" transform="translate(-118.46 -261.99)"/><path class="cls-3" d="M380.46,526.32c0,.1,0,.19-.22.28l0,.06a1,1,0,0,1-.23.38.82.82,0,0,0-.24.43l-.19.06a.4.4,0,0,1-.33.43c0,.07,0,.1-.09.1h0a.18.18,0,0,1-.2.15l-.11.21-.25.06-.22.14-.11,0-.4.07-.14,0-.13,0,0-.07-.16,0-.2-.25h-.09a.26.26,0,0,1-.07-.2.89.89,0,0,1-.29-.49v-.14l-.12-.24v-.1l.09-.05-.07-.26-.14-.32,0-.49-.18-.29v-.45a13.06,13.06,0,0,1-.26-1.6v-.07a1.06,1.06,0,0,1,0-.2.25.25,0,0,1,0-.1,1.27,1.27,0,0,1-.21-.5l-.09-.08-.37.39-.19.26-.63.75-.25.45c-.09.19-.16.34-.21.43a2.34,2.34,0,0,1-.35.4l.05.16-.12.35h-.14v.16h-.1l-.34.42c0,.19-.09.31-.23.34a1.16,1.16,0,0,0-.14.33c0,.15-.11.22-.2.23l-.07.07a2.69,2.69,0,0,1-.31.44,3.18,3.18,0,0,1-.41.35c0,.2-.12.32-.22.36l0,.09a.5.5,0,0,1-.09.23c-.05.08-.19.14-.43.2s-.15-.11-.2-.3-.12-.3-.21-.34l-.05-.11.14-.23,0-.22.09-.09-.09-.16,0-.22-.14-.39.12-.24-.07-.25a1.74,1.74,0,0,0,.12-.74v-.09a.56.56,0,0,0-.1-.21.33.33,0,0,0,.14-.22l0-.28.11-.69-.07-.13V524l-.08-.17.07-.57,0-.2.05-.33-.05-.46.12-.24a1.37,1.37,0,0,1,.36.13.26.26,0,0,1,0,.16,3.66,3.66,0,0,1,0,.41l.15.24-.06.34.07.74-.12.39.05.47v.22l-.16.26.11.38a2.08,2.08,0,0,0-.13.49l.09.22a2.21,2.21,0,0,0-.14.7v.65l.06.09.22-.11h.17l.1-.39c.13-.05.22-.11.25-.21s.1-.21.27-.21a.43.43,0,0,1,.12-.27c.05,0,.1-.08.17-.25a1.92,1.92,0,0,0,.29-.38v-.25h0s.1,0,.16-.13a.28.28,0,0,1,.23-.12.68.68,0,0,1,.16-.33l.25-.31.23-.5a1.05,1.05,0,0,1,0-.18s0-.05.05-.05c.24-.16.36-.32.36-.47v-.22c.18-.07.27-.14.27-.19a.44.44,0,0,0,0-.1l0-.09c0-.06,0-.09.07-.09a.24.24,0,0,1,.14.06c.09-.33.22-.49.41-.49a.41.41,0,0,1,.15,0,.57.57,0,0,1,.16-.41c0-.08.17-.17.42-.28l.09-.14h.07a.89.89,0,0,0,.26.26l0,.12.09,0,0,.34.23.14-.08.31.14.56v.52l.12.61.05.64.19.6,0,.6.09.17a1,1,0,0,1,.12.4l.08,0v.28l.16.17,0,.13.13.07V528a.55.55,0,0,0,.29.11.6.6,0,0,0,.27-.07l.09,0c.05,0,.1,0,.16-.14s.25-.06.25-.14v0s.14-.1.36-.18a.75.75,0,0,1,.19-.17l0,0a.37.37,0,0,1,.06-.1l.18-.16a.54.54,0,0,0,.16-.19l.1-.19.34-.51.25-.12h.16Z" transform="translate(-118.46 -261.99)"/><path class="cls-3" d="M390,525.64a.4.4,0,0,0-.18.32,1.21,1.21,0,0,0,0,.18l.11.65-.11.7,0,.29-.09.25.05.79-.05.11v.64l0,.51.08.18,0,1.19.09.22-.09.1.05.33-.09.08.08.28h-.08l0,.14v.27l-.09.22,0,.16-.38.67,0,.34-.09,0-.16.21a2.24,2.24,0,0,0-.33.46l-.32.19a.53.53,0,0,1-.52.42.06.06,0,0,1,0,.05s0,.06-.07.06l-.08.07a.67.67,0,0,0-.3.21h-.2l-.06.07-.23-.05-.36.24-.21,0-.58.09-.16,0-.09,0-.53-.09h-.14l-.18-.17-.09,0-.63-.21-.45-.07-.11-.18-.29,0-.12-.31-.17,0-.24-.34-.26-.13-.24-.34a.44.44,0,0,0-.14-.13l-.29-.16.1-.23-.17-.18,0-.11a1.2,1.2,0,0,0-.12-.46.92.92,0,0,1,0-.26,1.59,1.59,0,0,1,.07-.36l.07-.2v-.05l.13-.07,0-.09.07,0,0-.22a1.55,1.55,0,0,1,.43-.49l.25-.07.43-.38.5,0c.09-.12.16-.18.22-.18s.13,0,.13.14a.2.2,0,0,1,0,.09l-.24.11-.16.13a1.82,1.82,0,0,1-.41.16l-.12.25h-.26a2.61,2.61,0,0,1-.5.63l0,.34a.81.81,0,0,0-.15.46l-.09.05.4.93.36.13.05.21.56.55.21.06a.65.65,0,0,1,.23.13l.26.24h.29l.22.21.29,0,.12.11,1,0,.14,0v0c0,.06,0,.09.07.09l0,0a.63.63,0,0,1,.47-.19h.09l.57-.23v.07c.07,0,.11-.09.11-.11h-.06a.16.16,0,0,1,.11,0l.09,0c0-.1.07-.16.16-.16h.06l0-.1q.12,0,.12-.15h0c.06,0,.11,0,.15-.13a.18.18,0,0,1,.16-.14l.05,0a.53.53,0,0,1,.27-.38.64.64,0,0,0,.21-.49h.1c.18-.39.31-.69.39-.91l0-.06,0-.45.09-.06v-.41l.07-.12-.16-.2a1,1,0,0,0,.16-.18,1.2,1.2,0,0,0,0-.14.73.73,0,0,1,0-.27v-.07l0-.74v-1l-.09-.2.09-.36,0-.41v-.95l0-.2.07-.2-.07-.16.07-.16,0-.67-.17-.16.17-.17,0-.14,0-.27-.09-.1,0-.22-.12-.22a.53.53,0,0,1-.22.15l-.09.21-.15.09,0,.21-.29.21,0,.08-.14.21-.12,0-.06.09-.27.09V526h-.13l0,.22-.61.56-.41.46-.22.07-.11.17-.41.38-.17,0a3.17,3.17,0,0,1-.32.29l-.06.16-.16.09h-.14l-.09.17-.2,0-.36.36-.32.06-.13.12-.36.13-.06.14a.9.9,0,0,1-.41,0q-.39,0-.48-.15l-.36-.62,0-.29-.18-.66v-.58L382,527l.11-.43-.08-.29.08-.07,0-.23.12-.28,0-.41.09-.24-.09-.15.18-.83,0-.55,0-.48-.16-.67.07-.16-.07-.13.14-.35-.07-.15.12-.1v-.24l.21,0a.83.83,0,0,0,.23.36l-.06.13.12,0-.06.23.14.25-.05.13.05.29.09.07L383,523l.11.47-.22.29.11.12-.11.69v.63l-.07.09-.08.93-.19.25,0,.17V527l.08.25-.08.2,0,.31-.07.14.07.16v.22l.2.2.06.21.12,0,0,.11.15-.09.37,0,.14-.29.44-.18,0,.05a.25.25,0,0,1,.14-.21,1.68,1.68,0,0,0,.3-.21,1.12,1.12,0,0,1,.39-.23l0,.1c.06,0,.09-.06.09-.1a.25.25,0,0,0,0-.09,1.35,1.35,0,0,0,.59-.4,1.48,1.48,0,0,1,.84-.46l.22-.36,0,.11v-.16c.18,0,.27-.13.28-.29l.2-.14a.27.27,0,0,0,.18-.26v0a1.46,1.46,0,0,1,.46-.24l0-.14a3.39,3.39,0,0,0,.45-.59.89.89,0,0,0,.38-.36l.32-.69v-.41l.14-.07v-.35l-.09-.29.05-.26-.16-.1v-.05a.45.45,0,0,1,.09-.2,1,1,0,0,0,.12-.23l.07,0v-.13a.47.47,0,0,1,.21-.07l.37.38,0,.21v.18a1.89,1.89,0,0,0,.17.34l-.11.12,0,.24,0,.2.15.16-.15,0v.25l-.09.33.09.47v.34l.05.12,0,.33Z" transform="translate(-118.46 -261.99)"/><path class="cls-3" d="M297.09,289.86s-10.88-2.35-11.41-2.2-.57,2.89-.57,2.89" transform="translate(-118.46 -261.99)"/><polygon class="cls-3" points="165.43 26.79 168.67 27.14 167.94 33.58 164.64 33.58 165.43 26.79"/><path class="cls-3" d="M315.79,329.78a1.11,1.11,0,0,0-.63-.52,1.07,1.07,0,0,0-.8.22,3.84,3.84,0,0,0-.75.71,9.11,9.11,0,0,0-1.11,1.89,18.48,18.48,0,0,0-1.25,4.28,17.89,17.89,0,0,0-.22,4.44,8.75,8.75,0,0,0,.41,2.12c.21.64.63,1.28,1,1.31s.92-.41,1.31-1a9.48,9.48,0,0,0,1-1.86,26,26,0,0,0,1.24-4.2,20.12,20.12,0,0,0,.43-4.37,9.43,9.43,0,0,0-.28-2.14A3.19,3.19,0,0,0,315.79,329.78Z" transform="translate(-118.46 -261.99)"/><path class="cls-3" d="M344.55,327.06a2,2,0,0,0,0-2.23c-.46-.56-.56-1.12.1-2.33s-1-3.05-.56-4.47-1.16-2-1-2.78a1.44,1.44,0,0,0-.68-1.32c.76-.61,1.27-1-.61-4.72s-10.39-4.66-10.39-4.66L330.3,290.7c.15-2.18-1-2.48-2.33-3s-17.39-1.72-19.22-1.87a78,78,0,0,0-10.64.41,3,3,0,0,0-2.62,2l1.1.8-2.2,15.44-1.26.27.44-11.38h-.3a21.24,21.24,0,0,0,0-3.63,8.43,8.43,0,0,0-2-2.49l0,2a2.14,2.14,0,0,1,.62,1c.06.45,0,3.15,0,3.15h-.53l-.57,12.36s-2.51,1.26-4.11,2.29a5.44,5.44,0,0,0-2.47,3.15c-.11.72-.26,4.49-.26,4.49a34.37,34.37,0,0,0-11.52-1.2l-.05.86a3.26,3.26,0,0,1,2.95,1.06l-.71.41a3,3,0,0,1-1.48-.05c-.5-.1-1.77.4-1.92,1.1s-.76.57-1.32.52-.36.71-.3,1.72-.71.87-1.22.92-.61.66-.51,1.31a2.78,2.78,0,0,1-.76,2,1.64,1.64,0,0,0-.35,1.83c.25.91-.11,1-.41,1.37-.08.09-.16.2-.24.31a1.49,1.49,0,0,0-.21,1.25.75.75,0,0,1,0,.16,11.38,11.38,0,0,1,.46,3c-.15.61-.86,1.07-.2,2.18a1.65,1.65,0,0,1-.31,2.34c-.56.45.21,1.32.46,1.87S266,340,266,340.5s1,1.06,1.22,1.62a2.86,2.86,0,0,0,1.22,1.93c.91.5,7.65.86,9,.86a2.91,2.91,0,0,0,2.18-.76,15.52,15.52,0,0,1,1.78-1.12,2.14,2.14,0,0,0,1-1.62,1.41,1.41,0,0,1,.51-1.22,1.16,1.16,0,0,0,.25-1c0-.41,0-1.47.51-1.72s0-2.19,0-2.19a1.34,1.34,0,0,1,1,.31,24.65,24.65,0,0,1,1.47,2l4.52.25c1.06.05,1.92-2.08,1.92-2.08s7.25.61,7.56,1.22a2.66,2.66,0,0,1-.56,2.33c-.51.76.81,2.43.86,2.64s-.76.76-.86,1.57,1.12,1.37,1.17,2a3.7,3.7,0,0,0,.5,1.77,12.78,12.78,0,0,1,1,1.68c.4.71,9,1.06,10.29,1a14.14,14.14,0,0,0,3.4-1.17c.4-.1.51-.3.86-.71s0-.91.15-1.57.51-.56.92-.7.6-2.44.6-2.95a3.28,3.28,0,0,1,1-1.77c.4-.36.3-1.12.15-1.73s-.2-.71.3-.86.71-1.07.71-1.07l4.42.23,1,2.44a14.38,14.38,0,0,0,.38,3.42c.38,1.06,1.37,1.37,2.29,1.9s2.81.08,3.27.08,1,.23,1.75.3,1.82-.86,1.82-.86.91.35,1.32-.2a2.2,2.2,0,0,1,1.52-.71,1.21,1.21,0,0,0,.91-.56c.31-.41.41-.91.92-1.17s.71-.1.76-.76.5-1.87,1-1.93.81-1.16.71-1.67,0-1.57.46-1.87,1-1.32.61-1.88a2.59,2.59,0,0,1,.4-2.38c.46-.66,1-1.07.51-1.83A3.19,3.19,0,0,1,344.55,327.06Zm-63.48,9.36a7.15,7.15,0,0,1-1.54,2.52l-.31.26c-.12.07-.23.16-.36.22a1.67,1.67,0,0,1-.92.16,2.54,2.54,0,0,1-.47-.14,2.16,2.16,0,0,1-.38-.27,2.7,2.7,0,0,1-.53-.66,7.47,7.47,0,0,1-.77-2.92,18.22,18.22,0,0,1,.57-5.76,17.25,17.25,0,0,1,.94-2.73,10,10,0,0,1,1.5-2.44,18.76,18.76,0,0,0-1.71,5.33c-.15.92-.28,1.84-.34,2.76a17,17,0,0,0,0,2.76,6.87,6.87,0,0,0,.6,2.56c.19.35.44.64.72.68a1.29,1.29,0,0,0,1-.37,5.21,5.21,0,0,0,.88-1,10.11,10.11,0,0,0,.73-1.18,22.17,22.17,0,0,0,1.17-2.57A13.53,13.53,0,0,1,281.07,336.42Zm4.54-15.84a1.51,1.51,0,1,1,1.27-1.49A1.39,1.39,0,0,1,285.61,320.58Zm4.37.6a1.51,1.51,0,1,1,1.27-1.49A1.4,1.4,0,0,1,290,321.18Zm12.6-.11c-.34.65-1.05,1.82-1.8.93,0,0,0-1.11.06-2.56l2.67-1.41A9.61,9.61,0,0,1,302.58,321.07Zm1-3.91-2.74,1.44c0-1.07.05-2.25.07-3.26l2.65-.89A16.34,16.34,0,0,1,303.6,317.16Zm-2.67-4.4a1.53,1.53,0,0,1,1.58-1.49c.57.05.66.54.75,1s.18.94.24,1.44l-2.56.85C301,313.69,301,313,300.93,312.76Zm2.68-4.2c-1.18.47-2.38.88-3.59,1.28s-2.43.75-3.65,1.08a5.88,5.88,0,0,0-3,2,4.89,4.89,0,0,1,2.77-2.69c1.19-.48,2.39-.88,3.6-1.29s2.43-.76,3.67-1.08,2.48-.62,3.75-.82A36.35,36.35,0,0,1,303.61,308.56Zm6.05-2.49a6.09,6.09,0,0,0-4.61-2.13c-2.79-.15-9.23.35-9.23.35l2.87-12.9a2,2,0,0,1,2.11-1.52l14.63,1.52a2,2,0,0,1,1.76,1.92l.21,19.07a1.67,1.67,0,0,1-1.77,1.7l-5.56-.3S309.87,306.47,309.66,306.07Zm7.61,31.38a16.62,16.62,0,0,1-1.34,4.48,10.49,10.49,0,0,1-1.25,2.06,4.45,4.45,0,0,1-.94.89,2,2,0,0,1-1.47.37,1.93,1.93,0,0,1-1.19-.9,4.33,4.33,0,0,1-.5-1.16,10.65,10.65,0,0,1-.33-2.35,22.72,22.72,0,0,1,.4-4.59,21.88,21.88,0,0,1,1.33-4.4,11.39,11.39,0,0,1,1.14-2,4.21,4.21,0,0,1,.86-.88,1.76,1.76,0,0,1,1.32-.39,1.81,1.81,0,0,1,1.14.79,4.51,4.51,0,0,1,.56,1.12,10.67,10.67,0,0,1,.47,2.34A20.18,20.18,0,0,1,317.27,337.45Zm4.56-7.29c0,.65-.08,1.3-.17,1.93s-.23,1.27-.39,1.89c0-.64-.06-1.28-.08-1.91s-.09-1.26-.11-1.88-.13-1.25-.21-1.86a18,18,0,0,0-.38-1.8,11.18,11.18,0,0,0-1.4-3.36l-.54-.73a8,8,0,0,0-.63-.67,6.17,6.17,0,0,0-1.51-1.1,4.48,4.48,0,0,1,1.8.73,6.65,6.65,0,0,1,.79.61c.24.22.46.47.69.72s.4.53.58.81l.48.88c.13.3.25.61.38.92s.19.63.28.94a6.45,6.45,0,0,1,.21,1l.15,1c0,.32,0,.65.05,1S321.85,329.84,321.83,330.16Zm1.95-22.55-2.77.45a1,1,0,0,1-1.16-1V293.82a2.21,2.21,0,0,1,2-2.19l5.86-.57.33,1-1.82.1-.61,4.92,3.63.43.6,7.05S325.53,305.28,323.78,307.61Zm6.52,8.59c-.64,1.12-1.25,2.26-1.88,3.41a18.78,18.78,0,0,1,1.21-3.74,21.27,21.27,0,0,1,1.9-3.47,17,17,0,0,1,1.24-1.56,10.61,10.61,0,0,1,1.47-1.37,5.91,5.91,0,0,1,3.69-1.39,8,8,0,0,0-3.21,2,18.76,18.76,0,0,0-2.4,2.91C331.59,314,330.94,315.09,330.3,316.2Zm12.16,13.92a20.52,20.52,0,0,1-.58,3.11,17.31,17.31,0,0,1-1.19,3,10.18,10.18,0,0,1-1.88,2.7,4.49,4.49,0,0,1-.65.58,4.59,4.59,0,0,1-.77.49,3.27,3.27,0,0,1-1.94.33,3.21,3.21,0,0,1-1.68-.94,4.37,4.37,0,0,1-.54-.7,4.11,4.11,0,0,1-.4-.74,10.51,10.51,0,0,1-.82-3.08,22.33,22.33,0,0,1,.15-6.17,27.61,27.61,0,0,1,.65-3,21.32,21.32,0,0,1,1.07-2.89,10.71,10.71,0,0,1,1.65-2.64,5.31,5.31,0,0,1,1.24-1.06,3,3,0,0,1,1.71-.4,3,3,0,0,1,1.61.77,4.22,4.22,0,0,1,.57.63,5,5,0,0,1,.46.7,11,11,0,0,1,1.09,3,19.77,19.77,0,0,1,.38,3.15A25.53,25.53,0,0,1,342.46,330.12Z" transform="translate(-118.46 -261.99)"/><path class="cls-3" d="M340.09,321.32a3.8,3.8,0,0,0-.32-.6,3,3,0,0,0-.39-.53,2,2,0,0,0-1-.62,2.11,2.11,0,0,0-1.22.2,5.15,5.15,0,0,0-.58.37,3.88,3.88,0,0,0-.53.47A9.67,9.67,0,0,0,334.4,323a18.63,18.63,0,0,0-1.62,5.73,24.68,24.68,0,0,0-.15,3,17,17,0,0,0,.32,2.94,9.25,9.25,0,0,0,.95,2.69,3.88,3.88,0,0,0,.37.56,3.25,3.25,0,0,0,.43.47,1.85,1.85,0,0,0,.95.45,1.82,1.82,0,0,0,1-.29,3.16,3.16,0,0,0,.48-.36,4.91,4.91,0,0,0,.45-.46,9.75,9.75,0,0,0,1.4-2.37,19.07,19.07,0,0,0,.92-2.7c.25-.93.48-1.87.65-2.83a21.17,21.17,0,0,0,.24-5.78A9.56,9.56,0,0,0,340.09,321.32Z" transform="translate(-118.46 -261.99)"/></svg>